<?xml version="1.0" standalone="no"?>
<!DOCTYPE svg PUBLIC "-//W3C//DTD SVG 20010904//EN"
 "http://www.w3.org/TR/2001/REC-SVG-20010904/DTD/svg10.dtd">
<svg version="1.0" xmlns="http://www.w3.org/2000/svg"
 width="1216.000000pt" height="1216.000000pt" viewBox="0 0 1216.000000 1216.000000"
 preserveAspectRatio="xMidYMid meet">
<metadata>
Created by potrace 1.11, written by Peter Selinger 2001-2013
</metadata>
<g transform="translate(0.000000,1216.000000) scale(0.100000,-0.100000)"
fill="#000000" stroke="none">
<path d="M3258 10875 c-2 -1 -41 -6 -86 -9 -46 -3 -94 -8 -105 -11 -12 -2 -40
-7 -62 -9 -46 -6 -72 -11 -175 -33 -41 -9 -82 -17 -90 -17 -9 -1 -21 -5 -28
-10 -6 -4 -12 -5 -12 -2 0 3 -16 -2 -35 -10 -19 -8 -36 -14 -37 -13 -4 0 -10
-2 -126 -40 -51 -17 -121 -43 -155 -57 -74 -30 -330 -155 -337 -165 -3 -3 -15
-9 -27 -13 -13 -4 -23 -12 -23 -17 0 -5 -5 -9 -11 -9 -6 0 -30 -13 -54 -30
-24 -16 -46 -30 -49 -30 -6 0 -36 -24 -61 -47 -7 -7 -15 -9 -19 -6 -3 4 -6 1
-6 -5 0 -7 -4 -12 -10 -12 -9 0 -28 -13 -64 -45 -6 -5 -27 -22 -47 -37 -102
-76 -315 -285 -425 -418 -83 -99 -215 -284 -255 -358 -13 -23 -34 -59 -46 -80
-33 -56 -107 -209 -137 -282 -15 -36 -33 -78 -41 -95 -7 -16 -16 -41 -20 -55
-3 -14 -10 -34 -15 -45 -21 -50 -90 -309 -105 -395 -26 -157 -32 -203 -41
-335 -12 -170 -6 -437 12 -555 21 -143 52 -300 79 -402 3 -10 7 -26 10 -35 2
-10 11 -39 19 -65 8 -25 12 -49 9 -52 -4 -3 -1 -6 5 -6 6 0 13 -14 17 -31 6
-27 43 -125 65 -174 42 -91 77 -172 80 -180 1 -5 11 -22 21 -37 10 -14 19 -28
19 -31 0 -10 84 -152 92 -155 4 -2 8 -8 8 -13 0 -9 76 -128 89 -139 3 -3 22
-27 41 -55 19 -27 40 -57 47 -65 7 -8 12 -19 11 -24 -4 -13 -361 -14 -371 -1
-5 7 -9 7 -15 0 -4 -7 -54 -11 -127 -10 l-120 0 0 -407 0 -408 483 0 482 0 0
-1953 0 -1953 4200 1 c3317 0 4202 3 4208 12 9 14 7 136 -2 159 -3 8 -2 14 2
14 9 0 8 132 -2 148 -4 7 -4 12 1 12 4 0 8 79 8 175 0 96 -4 175 -8 175 -5 0
-5 5 -1 12 10 16 11 238 1 238 -5 0 -5 5 -1 12 11 17 11 378 1 378 -5 0 -5 5
-1 12 11 17 11 238 0 238 -5 0 -4 6 1 12 5 7 8 66 7 131 -2 136 -13 129 116
70 41 -19 101 -46 132 -59 32 -13 81 -35 110 -48 115 -52 155 -70 193 -86 60
-26 136 -60 170 -75 77 -36 166 -75 170 -75 4 0 50 -21 190 -86 28 -12 86 -38
130 -57 83 -36 138 -60 240 -107 33 -15 77 -33 98 -41 20 -7 37 -17 37 -21 0
-4 8 -8 18 -8 10 0 22 -3 26 -8 4 -4 11 -7 14 -8 4 0 23 -8 42 -17 19 -9 100
-44 180 -79 l144 -64 0 -125 c0 -68 4 -126 8 -129 6 -5 182 -5 211 -1 4 0 6
967 5 2149 l-3 2147 -110 0 -110 0 0 -127 0 -127 -40 -18 c-21 -10 -42 -18
-45 -18 -3 -1 -19 -9 -37 -18 -18 -9 -38 -17 -46 -17 -8 0 -20 -7 -27 -15 -7
-8 -18 -15 -26 -15 -12 0 -132 -52 -197 -85 -16 -8 -35 -15 -43 -15 -8 0 -14
-5 -14 -12 0 -6 -2 -9 -6 -6 -3 3 -32 -7 -65 -23 -32 -16 -61 -29 -64 -29 -2
0 -28 -11 -57 -24 -29 -13 -116 -52 -193 -86 -77 -34 -164 -73 -193 -86 -29
-13 -54 -24 -56 -24 -2 0 -39 -17 -82 -37 -43 -20 -81 -37 -84 -38 -3 0 -15
-6 -26 -13 -12 -6 -24 -8 -28 -5 -3 3 -6 1 -6 -5 0 -7 -9 -12 -20 -12 -11 0
-20 -4 -20 -8 0 -5 -6 -9 -12 -9 -7 0 -53 -19 -101 -41 -49 -23 -90 -42 -93
-42 -2 0 -39 -16 -81 -36 -43 -20 -83 -37 -89 -38 -7 -1 -20 -8 -30 -16 -9 -8
-18 -14 -18 -12 -1 5 -39 -10 -128 -51 -43 -20 -79 -33 -82 -29 -2 4 -3 35 -2
70 0 34 -3 62 -7 62 -5 0 -5 5 -1 12 11 17 11 138 1 138 -5 0 -5 5 -1 12 10
15 12 368 2 374 -10 6 16 54 30 54 6 0 12 4 12 9 0 8 44 62 90 110 8 9 26 32
40 51 13 19 30 39 37 43 7 4 13 12 13 17 0 9 20 36 48 66 7 8 10 14 7 14 -4 0
7 17 23 38 16 20 39 55 50 76 12 22 25 42 29 45 8 6 26 39 86 156 17 33 35 62
39 63 4 2 8 8 8 14 0 8 36 96 75 183 19 41 36 87 40 105 2 8 11 35 20 60 9 25
19 56 21 69 3 13 9 31 13 40 5 9 12 34 16 56 4 22 10 44 13 50 3 5 7 16 7 25
1 8 8 42 15 75 8 33 14 65 15 70 0 6 4 30 9 55 5 25 10 56 11 70 2 14 6 50 10
80 22 178 22 480 -1 645 -2 17 -7 50 -10 75 -3 25 -7 54 -9 65 -4 23 -32 170
-39 200 -20 98 -101 353 -117 370 -5 5 -9 15 -9 22 0 18 -29 82 -106 238 -81
162 -139 260 -226 381 -13 17 -32 44 -43 60 -11 16 -22 31 -25 34 -3 3 -23 28
-45 55 -109 137 -287 314 -430 428 -33 27 -69 56 -80 65 -40 33 -231 159 -285
188 -30 16 -57 31 -60 34 -10 10 -157 83 -235 117 -95 42 -343 130 -382 137
-16 2 -28 5 -28 6 0 1 -7 3 -15 5 -8 1 -43 10 -77 19 -34 9 -83 19 -110 22
-26 3 -50 7 -54 9 -8 5 -44 11 -164 26 -159 21 -539 18 -690 -5 -17 -2 -53 -7
-80 -10 -27 -4 -57 -8 -65 -11 -15 -4 -45 -10 -110 -21 -45 -8 -52 -10 -70
-17 -8 -4 -26 -9 -40 -11 -14 -3 -34 -7 -45 -9 -33 -8 -261 -86 -302 -104 -21
-9 -40 -17 -43 -18 -39 -12 -228 -103 -265 -129 -16 -12 -31 -20 -32 -19 -7 6
-246 -144 -251 -158 -2 -5 -8 -9 -13 -9 -10 0 -133 -94 -219 -168 -30 -26
-107 -100 -171 -164 -107 -108 -139 -133 -139 -109 0 15 -302 311 -317 311 -4
0 -103 79 -113 91 -3 3 -27 21 -55 39 -27 19 -51 37 -53 42 -2 4 -8 8 -13 8
-6 0 -36 17 -67 38 -85 58 -362 207 -362 195 0 -2 -12 2 -27 11 -38 20 -103
48 -117 50 -6 1 -16 5 -22 8 -6 4 -33 14 -60 23 -27 9 -56 19 -64 22 -16 6
-30 11 -57 17 -10 3 -18 5 -18 6 0 3 -39 12 -57 13 -10 1 -18 4 -18 8 0 4 -15
9 -32 12 -18 3 -55 11 -83 17 -48 11 -65 14 -130 25 -16 3 -39 7 -51 9 -21 4
-95 14 -169 23 -46 5 -462 13 -467 8z m372 -1590 c14 -3 36 -8 50 -11 106 -19
272 -73 318 -102 12 -8 22 -10 22 -6 0 5 4 4 8 -1 4 -6 21 -17 37 -25 73 -36
209 -137 287 -213 108 -105 176 -192 230 -294 12 -24 26 -43 30 -43 4 0 8 -7
8 -15 0 -8 11 -38 24 -67 45 -97 54 -122 75 -213 47 -207 47 -435 -3 -635 -3
-14 -8 -34 -10 -45 -5 -24 -39 -113 -66 -172 -11 -24 -20 -47 -20 -53 0 -5 -4
-10 -9 -10 -5 0 -12 -11 -15 -25 -4 -14 -11 -25 -17 -25 -6 0 -7 -4 -4 -10 3
-5 3 -10 -2 -10 -4 0 -14 -14 -21 -30 -8 -17 -19 -36 -26 -43 -6 -6 -23 -28
-36 -47 -28 -40 -90 -109 -139 -154 -91 -84 -123 -111 -144 -119 -9 -3 -17
-10 -17 -16 0 -5 -8 -11 -17 -15 -10 -3 -36 -17 -58 -31 -52 -32 -157 -83
-205 -100 -3 -1 -13 -5 -22 -8 -40 -15 -54 -20 -63 -23 -31 -7 -103 -25 -120
-29 -11 -3 -40 -8 -65 -11 -25 -3 -56 -8 -70 -10 -35 -5 -164 -5 -235 0 -83 5
-122 12 -277 50 -9 3 -25 9 -35 14 -10 6 -22 11 -28 12 -15 4 -28 7 -50 15
-11 3 -22 6 -24 5 -2 -1 -7 2 -10 7 -3 4 -46 28 -94 53 -49 25 -97 53 -107 63
-11 9 -24 17 -30 17 -5 0 -10 4 -10 8 0 4 -12 15 -27 24 -44 26 -194 177 -243
243 -24 33 -47 62 -52 63 -4 2 -8 7 -8 11 0 4 -20 42 -44 85 -24 43 -54 103
-66 134 -12 31 -26 66 -31 77 -11 27 -39 132 -46 175 -3 19 -9 55 -13 80 -9
49 -6 339 4 383 3 15 8 37 10 50 3 12 9 37 15 55 5 17 7 32 4 32 -3 0 0 7 7
15 7 9 10 18 7 22 -4 3 -1 15 5 27 7 11 13 26 14 32 4 23 76 177 107 227 58
95 212 287 230 287 2 0 26 20 53 45 26 25 51 45 55 45 3 0 22 13 40 30 45 39
254 143 350 174 87 28 141 39 244 52 28 3 51 7 53 9 5 5 267 -4 292 -10z
m4370 0 c14 -4 39 -8 55 -10 17 -2 55 -10 85 -18 283 -76 526 -234 701 -457
33 -41 63 -80 68 -86 26 -33 109 -193 126 -244 1 -3 7 -17 13 -31 10 -25 34
-108 34 -119 0 -3 5 -16 10 -30 5 -14 12 -45 15 -69 2 -24 8 -53 12 -65 9 -23
7 -326 -2 -366 -6 -26 -17 -83 -21 -110 -1 -9 -5 -20 -8 -26 -4 -6 -9 -22 -12
-37 -19 -108 -154 -367 -235 -454 -12 -12 -21 -24 -21 -27 0 -6 -113 -119
-156 -156 -47 -41 -161 -120 -172 -120 -6 0 -12 -4 -14 -8 -7 -19 -288 -141
-288 -127 0 3 -8 1 -18 -4 -11 -6 -31 -13 -45 -16 -15 -3 -39 -8 -54 -11 -16
-3 -39 -8 -53 -11 -47 -9 -358 -12 -391 -3 -19 5 -61 14 -94 21 -70 15 -58 12
-115 28 -25 7 -51 18 -59 24 -8 7 -15 11 -15 9 -2 -9 -56 11 -56 21 0 6 -3 8
-6 4 -15 -15 -204 100 -311 189 -205 173 -341 379 -419 639 -10 33 -19 65 -20
70 -4 20 -14 81 -21 120 -10 57 -9 278 1 355 4 36 9 73 9 83 1 9 6 17 11 17 5
0 7 3 4 6 -3 3 1 29 8 57 8 29 16 59 18 67 7 29 89 215 101 230 7 8 21 31 31
50 34 63 107 153 194 241 82 82 189 169 209 169 5 0 11 4 13 9 8 23 262 140
338 156 8 2 16 4 18 5 4 4 11 6 117 27 11 2 40 6 64 9 25 2 46 6 48 8 6 5 277
-3 303 -9z"/>
</g>
</svg>
