<?xml version="1.0" encoding="utf-8"?>
<!-- Generator: Adobe Illustrator 16.0.0, SVG Export Plug-In . SVG Version: 6.00 Build 0)  -->
<!DOCTYPE svg PUBLIC "-//W3C//DTD SVG 1.1//EN" "http://www.w3.org/Graphics/SVG/1.1/DTD/svg11.dtd" [
	<!ENTITY ns_flows "http://ns.adobe.com/Flows/1.0/">
	<!ENTITY ns_extend "http://ns.adobe.com/Extensibility/1.0/">
	<!ENTITY ns_ai "http://ns.adobe.com/AdobeIllustrator/10.0/">
	<!ENTITY ns_graphs "http://ns.adobe.com/Graphs/1.0/">
]>
<svg version="1.1" id="Layer_5" xmlns:x="&ns_extend;" xmlns:i="&ns_ai;" xmlns:graph="&ns_graphs;"
	 xmlns="http://www.w3.org/2000/svg" xmlns:xlink="http://www.w3.org/1999/xlink" xmlns:a="http://ns.adobe.com/AdobeSVGViewerExtensions/3.0/"
	 x="0px" y="0px" width="500px" height="186px" viewBox="0 0 500 186" enable-background="new 0 0 500 186" xml:space="preserve">
<g>
	<rect fill="#5FA9DD" width="500" height="186"/>
	<g>
		<g>
			<path fill="#FFFFFF" d="M218.106,45.83h27.94l-1.595,7.26h-19.25l-1.925,9.075h16.83l-1.43,6.71h-16.775L218.437,85.1h-8.635
				L218.106,45.83z"/>
			<path fill="#FFFFFF" d="M243.186,73.605c0-2.42,0.376-4.702,1.128-6.847c0.751-2.145,1.833-4.024,3.245-5.638
				c1.411-1.613,3.125-2.888,5.143-3.823c2.016-0.935,4.289-1.402,6.819-1.402c1.943,0,3.731,0.248,5.362,0.743
				s3.034,1.237,4.208,2.228c1.173,0.99,2.081,2.237,2.723,3.74c0.641,1.504,0.962,3.282,0.962,5.335
				c0,2.494-0.376,4.832-1.127,7.013c-0.752,2.182-1.843,4.08-3.272,5.692c-1.431,1.614-3.173,2.888-5.226,3.823
				c-2.054,0.935-4.363,1.402-6.93,1.402c-3.96,0-7.123-1.026-9.487-3.08C244.368,80.737,243.186,77.675,243.186,73.605z
				 M250.996,73.605c0,0.844,0.119,1.65,0.358,2.42c0.238,0.77,0.596,1.449,1.072,2.035c0.477,0.587,1.063,1.055,1.76,1.402
				c0.696,0.349,1.504,0.522,2.42,0.522c1.467,0,2.723-0.394,3.768-1.182c1.045-0.788,1.906-1.778,2.585-2.97
				c0.679-1.191,1.183-2.483,1.513-3.877c0.33-1.393,0.495-2.695,0.495-3.905c0-1.906-0.44-3.428-1.32-4.565
				c-0.88-1.136-2.347-1.705-4.399-1.705c-1.43,0-2.668,0.394-3.713,1.182c-1.045,0.789-1.897,1.77-2.558,2.943
				c-0.659,1.174-1.155,2.447-1.485,3.822S250.996,72.395,250.996,73.605z"/>
			<path fill="#FFFFFF" d="M282.95,45.83h7.81L282.4,85.1h-7.811L282.95,45.83z"/>
			<path fill="#FFFFFF" d="M297.194,45.83h7.81l-8.359,39.27h-7.811L297.194,45.83z"/>
			<path fill="#FFFFFF" d="M304.288,73.605c0-2.42,0.376-4.702,1.128-6.847c0.751-2.145,1.833-4.024,3.245-5.638
				c1.411-1.613,3.125-2.888,5.143-3.823c2.016-0.935,4.29-1.402,6.819-1.402c1.943,0,3.73,0.248,5.362,0.743
				s3.034,1.237,4.208,2.228c1.173,0.99,2.08,2.237,2.723,3.74c0.641,1.504,0.962,3.282,0.962,5.335
				c0,2.494-0.376,4.832-1.127,7.013c-0.752,2.182-1.843,4.08-3.272,5.692c-1.431,1.614-3.172,2.888-5.226,3.823
				s-4.363,1.402-6.93,1.402c-3.96,0-7.122-1.026-9.487-3.08C305.471,80.737,304.288,77.675,304.288,73.605z M312.099,73.605
				c0,0.844,0.118,1.65,0.357,2.42c0.237,0.77,0.596,1.449,1.072,2.035c0.476,0.587,1.063,1.055,1.76,1.402
				c0.696,0.349,1.503,0.522,2.42,0.522c1.467,0,2.723-0.394,3.768-1.182c1.045-0.788,1.906-1.778,2.585-2.97
				c0.679-1.191,1.183-2.483,1.513-3.877c0.33-1.393,0.495-2.695,0.495-3.905c0-1.906-0.44-3.428-1.32-4.565
				c-0.88-1.136-2.347-1.705-4.399-1.705c-1.431,0-2.668,0.394-3.713,1.182c-1.045,0.789-1.897,1.77-2.558,2.943
				c-0.66,1.174-1.155,2.447-1.484,3.822C312.264,71.103,312.099,72.395,312.099,73.605z"/>
			<path fill="#FFFFFF" d="M367.372,85.1h-8.14l-0.99-19.965h-0.109l-8.8,19.965h-8.195l-3.135-28.435h7.975l1.1,20.02h0.11
				l8.745-20.02h7.92l0.88,19.855h0.11l9.13-19.855h8.25L367.372,85.1z"/>
			<path fill="#FFFFFF" d="M432.932,68.655c-0.587,2.824-1.329,5.317-2.228,7.48c-0.898,2.164-2.081,3.979-3.547,5.445
				c-1.468,1.467-3.265,2.577-5.391,3.328c-2.127,0.751-4.712,1.127-7.755,1.127c-1.907,0-3.786-0.202-5.638-0.605
				c-1.852-0.403-3.502-1.073-4.95-2.008c-1.448-0.935-2.621-2.135-3.52-3.602c-0.898-1.466-1.348-3.281-1.348-5.445
				c0-0.99,0.091-1.97,0.275-2.942c0.183-0.971,0.366-1.934,0.55-2.888l4.785-22.715h8.635l-4.785,22.715
				c-0.073,0.33-0.156,0.707-0.247,1.127c-0.092,0.422-0.185,0.872-0.275,1.348c-0.092,0.477-0.165,0.926-0.22,1.348
				c-0.055,0.422-0.083,0.797-0.083,1.127c0,0.514,0.101,1.072,0.303,1.677c0.201,0.605,0.578,1.174,1.128,1.705
				c0.55,0.532,1.301,0.981,2.255,1.348c0.953,0.367,2.181,0.55,3.685,0.55c1.761,0,3.19-0.229,4.29-0.688
				c1.101-0.458,1.998-1.1,2.695-1.925c0.696-0.825,1.228-1.833,1.595-3.025c0.366-1.191,0.715-2.539,1.045-4.042l4.896-23.265
				h8.635L432.932,68.655z"/>
			<path fill="#FFFFFF" d="M456.582,64.97c-0.037-1.21-0.404-2.154-1.101-2.833c-0.696-0.678-1.797-1.018-3.3-1.018
				c-1.394,0-2.539,0.211-3.438,0.632c-0.898,0.422-1.348,1.146-1.348,2.173c0,0.624,0.266,1.155,0.798,1.595
				c0.531,0.44,1.457,0.862,2.777,1.265l3.905,1.265c1.025,0.33,1.998,0.724,2.915,1.182c0.916,0.459,1.713,1,2.393,1.623
				c0.678,0.624,1.21,1.367,1.595,2.228c0.385,0.862,0.577,1.897,0.577,3.107c0,1.76-0.395,3.254-1.183,4.482
				c-0.788,1.229-1.824,2.228-3.107,2.998s-2.731,1.33-4.345,1.678c-1.614,0.348-3.245,0.522-4.895,0.522
				c-1.395,0-2.806-0.147-4.235-0.44c-1.43-0.294-2.732-0.788-3.905-1.485c-1.174-0.696-2.127-1.613-2.859-2.75
				c-0.733-1.136-1.101-2.53-1.101-4.18V75.86h7.26v0.935c0,0.66,0.165,1.229,0.495,1.705c0.33,0.477,0.761,0.872,1.293,1.183
				c0.531,0.312,1.136,0.55,1.814,0.715s1.348,0.248,2.008,0.248c0.586,0,1.173-0.055,1.76-0.165
				c0.586-0.11,1.118-0.302,1.596-0.577c0.476-0.275,0.86-0.623,1.154-1.045c0.293-0.421,0.44-0.962,0.44-1.623
				c0-0.99-0.257-1.686-0.771-2.09c-0.514-0.403-1.191-0.751-2.035-1.045l-5.994-1.925c-0.99-0.33-1.861-0.678-2.613-1.045
				c-0.752-0.366-1.394-0.825-1.925-1.375c-0.532-0.55-0.935-1.218-1.21-2.007c-0.274-0.788-0.412-1.732-0.412-2.833
				c0-1.686,0.394-3.098,1.183-4.235c0.788-1.136,1.806-2.063,3.052-2.777c1.246-0.715,2.604-1.229,4.07-1.54
				c1.466-0.312,2.896-0.468,4.29-0.468c1.54,0,3.025,0.129,4.455,0.385c1.43,0.257,2.676,0.724,3.74,1.402
				c1.063,0.679,1.915,1.604,2.558,2.777c0.641,1.174,0.943,2.677,0.907,4.51H456.582z"/>
			<path fill="#FFFFFF" d="M210.571,121.605c0-2.42,0.376-4.702,1.128-6.847c0.751-2.145,1.833-4.024,3.245-5.638
				c1.411-1.613,3.125-2.888,5.143-3.823c2.016-0.935,4.29-1.402,6.82-1.402c1.943,0,3.731,0.248,5.363,0.743
				c1.631,0.495,3.034,1.237,4.208,2.228c1.173,0.99,2.081,2.237,2.723,3.74c0.641,1.504,0.962,3.282,0.962,5.335
				c0,2.494-0.376,4.832-1.127,7.013c-0.752,2.182-1.843,4.08-3.272,5.692c-1.43,1.614-3.172,2.888-5.225,3.823
				c-2.054,0.935-4.364,1.402-6.93,1.402c-3.96,0-7.123-1.026-9.487-3.08C211.754,128.737,210.571,125.675,210.571,121.605z
				 M218.381,121.605c0,0.844,0.119,1.65,0.357,2.42c0.238,0.77,0.596,1.449,1.073,2.035c0.476,0.587,1.063,1.055,1.76,1.402
				c0.696,0.349,1.503,0.522,2.42,0.522c1.466,0,2.722-0.394,3.767-1.182c1.045-0.788,1.906-1.778,2.585-2.97
				c0.678-1.191,1.183-2.483,1.513-3.877c0.33-1.393,0.495-2.695,0.495-3.905c0-1.906-0.44-3.428-1.32-4.565
				c-0.88-1.136-2.347-1.705-4.4-1.705c-1.43,0-2.667,0.394-3.712,1.182c-1.045,0.789-1.897,1.77-2.558,2.943
				c-0.66,1.174-1.155,2.447-1.485,3.822S218.381,120.395,218.381,121.605z"/>
			<path fill="#FFFFFF" d="M247.916,104.665h7.48l-0.88,3.96h0.11c2.53-3.153,5.848-4.73,9.954-4.73
				c2.714,0,4.776,0.651,6.188,1.953c1.412,1.302,2.118,3.199,2.118,5.692c0,0.294-0.037,0.669-0.11,1.127
				c-0.074,0.459-0.146,0.927-0.22,1.403c-0.073,0.477-0.165,0.926-0.274,1.347c-0.11,0.422-0.185,0.762-0.221,1.018l-3.52,16.665
				h-7.811l3.465-16.665c0.037-0.22,0.092-0.485,0.166-0.797c0.072-0.311,0.127-0.633,0.164-0.962
				c0.037-0.33,0.073-0.651,0.11-0.963c0.036-0.311,0.056-0.559,0.056-0.742c0-0.843-0.395-1.54-1.184-2.09
				c-0.789-0.55-1.641-0.825-2.557-0.825c-1.174,0-2.21,0.229-3.107,0.688c-0.899,0.459-1.678,1.054-2.338,1.788
				c-0.66,0.734-1.191,1.577-1.596,2.53c-0.403,0.954-0.715,1.925-0.935,2.915l-3.19,15.125h-7.81L247.916,104.665z"/>
			<path fill="#FFFFFF" d="M306.778,101.09H294.5l1.54-7.26h32.726l-1.54,7.26h-11.771l-6.71,32.01h-8.635L306.778,101.09z"/>
			<path fill="#FFFFFF" d="M352.085,133.1h-8.14l-0.99-19.965h-0.109l-8.8,19.965h-8.195l-3.135-28.435h7.975l1.1,20.02h0.11
				l8.745-20.02h7.92l0.88,19.855h0.11l9.13-19.855h8.25L352.085,133.1z"/>
			<path fill="#FFFFFF" d="M371.279,104.665h7.811l-6.05,28.435h-7.811L371.279,104.665z M379.97,100.265h-7.811l1.42-6.435h7.82
				L379.97,100.265z"/>
			<path fill="#FFFFFF" d="M395.424,104.665h5.61l-1.21,5.225h-5.5l-2.937,14.135c-0.073,0.294-0.129,0.56-0.166,0.798
				c-0.037,0.239-0.056,0.412-0.056,0.522c0,0.514,0.083,0.907,0.25,1.183c0.165,0.275,0.378,0.486,0.637,0.632
				c0.259,0.147,0.545,0.229,0.858,0.248c0.313,0.019,0.618,0.027,0.914,0.027c0.919,0,1.854-0.055,2.809-0.165l-1.32,6.05
				c-0.808,0.073-1.618,0.137-2.43,0.192c-0.813,0.055-1.644,0.083-2.492,0.083c-0.924,0-1.838-0.083-2.742-0.248
				c-0.903-0.165-1.704-0.468-2.4-0.908c-0.697-0.44-1.266-1.026-1.705-1.76c-0.44-0.733-0.643-1.686-0.605-2.86
				c0-0.366,0.036-0.779,0.11-1.238c0.073-0.458,0.165-0.943,0.275-1.458l3.189-15.235h-5.115l1.21-5.225h5.006l1.76-8.635h7.81
				L395.424,104.665z"/>
			<path fill="#FFFFFF" d="M415.773,104.665h5.61l-1.21,5.225h-5.5l-2.937,14.135c-0.073,0.294-0.129,0.56-0.166,0.798
				c-0.037,0.239-0.056,0.412-0.056,0.522c0,0.514,0.083,0.907,0.25,1.183c0.165,0.275,0.378,0.486,0.637,0.632
				c0.259,0.147,0.545,0.229,0.858,0.248c0.313,0.019,0.618,0.027,0.914,0.027c0.919,0,1.854-0.055,2.809-0.165l-1.32,6.05
				c-0.808,0.073-1.618,0.137-2.43,0.192c-0.813,0.055-1.644,0.083-2.492,0.083c-0.924,0-1.838-0.083-2.742-0.248
				c-0.903-0.165-1.704-0.468-2.4-0.908c-0.697-0.44-1.266-1.026-1.705-1.76c-0.44-0.733-0.643-1.686-0.605-2.86
				c0-0.366,0.036-0.779,0.11-1.238c0.073-0.458,0.165-0.943,0.275-1.458l3.189-15.235h-5.115l1.21-5.225h5.006l1.76-8.635h7.81
				L415.773,104.665z"/>
			<path fill="#FFFFFF" d="M428.919,120.78c-0.037,0.367-0.055,0.679-0.055,0.935c0,0.257,0,0.495,0,0.715
				c0,1.65,0.513,2.989,1.54,4.015c1.025,1.027,2.603,1.54,4.729,1.54c0.771,0,1.458-0.118,2.063-0.357
				c0.605-0.238,1.137-0.541,1.595-0.907c0.459-0.366,0.861-0.788,1.211-1.265c0.348-0.476,0.668-0.935,0.962-1.375h7.811
				c-0.624,1.614-1.357,3.025-2.2,4.235c-0.844,1.21-1.853,2.228-3.025,3.053c-1.174,0.825-2.539,1.449-4.098,1.87
				c-1.559,0.421-3.364,0.632-5.417,0.632c-1.907,0-3.64-0.267-5.197-0.797c-1.56-0.531-2.888-1.32-3.988-2.365
				c-1.1-1.045-1.952-2.346-2.558-3.905c-0.604-1.558-0.907-3.346-0.907-5.363c0-2.273,0.366-4.463,1.101-6.572
				c0.732-2.108,1.769-3.978,3.107-5.61c1.338-1.631,2.979-2.933,4.922-3.905c1.943-0.971,4.125-1.458,6.545-1.458
				c1.98,0,3.786,0.257,5.418,0.77c1.631,0.514,3.025,1.292,4.18,2.337c1.155,1.045,2.054,2.347,2.695,3.905
				c0.641,1.559,0.963,3.364,0.963,5.417c0,1.504-0.147,2.989-0.44,4.455H428.919z M442.779,115.83c0-0.733-0.064-1.458-0.192-2.172
				c-0.129-0.715-0.377-1.366-0.743-1.953c-0.367-0.586-0.898-1.054-1.595-1.402c-0.697-0.348-1.614-0.522-2.75-0.522
				c-1.1,0-2.072,0.165-2.915,0.495c-0.844,0.33-1.577,0.77-2.2,1.32c-0.624,0.55-1.146,1.192-1.567,1.925
				c-0.422,0.734-0.779,1.504-1.072,2.31H442.779z"/>
			<path fill="#FFFFFF" d="M457.684,104.665h7.425l-1.155,5.115l0.11,0.11c0.88-1.98,2.208-3.474,3.987-4.482
				c1.778-1.008,3.713-1.513,5.803-1.513c0.77,0,1.576,0.055,2.42,0.165l-1.595,7.59c-0.551-0.11-1.101-0.22-1.65-0.33
				c-0.55-0.11-1.1-0.165-1.65-0.165c-1.504,0-2.777,0.257-3.822,0.77c-1.045,0.514-1.925,1.21-2.64,2.09s-1.284,1.879-1.705,2.998
				c-0.422,1.119-0.762,2.282-1.018,3.492l-2.64,12.595h-7.811L457.684,104.665z"/>
		</g>
		<path fill="#FFFFFF" d="M185.717,43.308c-5.717,2.536-11.861,4.25-18.311,5.021c6.582-3.945,11.638-10.193,14.018-17.638
			c-6.16,3.653-12.982,6.307-20.244,7.736c-5.815-6.196-14.101-10.067-23.271-10.067c-17.606,0-31.88,14.273-31.88,31.879
			c0,2.499,0.281,4.932,0.825,7.266c-26.495-1.33-49.986-14.021-65.71-33.31c-2.744,4.709-4.316,10.185-4.316,16.027
			c0,11.061,5.629,20.818,14.183,26.535c-5.226-0.165-10.142-1.6-14.44-3.987c-0.002,0.133-0.002,0.267-0.002,0.4
			c0,15.446,10.988,28.332,25.573,31.26c-2.676,0.729-5.492,1.118-8.399,1.118c-2.055,0-4.052-0.2-5.998-0.571
			c4.057,12.665,15.83,21.883,29.78,22.14c-10.91,8.551-24.656,13.647-39.593,13.647c-2.573,0-5.111-0.151-7.604-0.445
			c14.108,9.045,30.865,14.322,48.869,14.322c58.639,0,90.704-48.577,90.704-90.706c0-1.382-0.03-2.757-0.092-4.124
			C176.038,55.316,181.442,49.701,185.717,43.308z"/>
	</g>
</g>
</svg>
